<?xml version="1.0" encoding="utf-8"?>
<!-- Generator: Adobe Illustrator 16.0.0, SVG Export Plug-In . SVG Version: 6.00 Build 0)  -->
<!DOCTYPE svg PUBLIC "-//W3C//DTD SVG 1.1//EN" "http://www.w3.org/Graphics/SVG/1.1/DTD/svg11.dtd">
<svg version="1.1" id="Layer_1" xmlns="http://www.w3.org/2000/svg" xmlns:xlink="http://www.w3.org/1999/xlink" x="0px" y="0px"
	 width="100px" height="100px" viewBox="0 0 100 100" enable-background="new 0 0 100 100" xml:space="preserve">
<g>
	<path fill="#FFFFFF" d="M94.241,65.614h-8.674V55.205h8.674c2.871,0,5.207,2.335,5.207,5.205
		C99.448,63.279,97.112,65.614,94.241,65.614z M89.037,62.145h5.204c0.959,0,1.737-0.777,1.737-1.734
		c0-0.958-0.778-1.736-1.737-1.736h-5.204V62.145z"/>
	<path fill="#FFFFFF" d="M14.431,65.614H5.757c-2.87,0-5.205-2.335-5.205-5.204c0-2.87,2.335-5.205,5.205-5.205h8.674V65.614z
		 M5.757,58.674c-0.958,0-1.735,0.778-1.735,1.736c0,0.957,0.777,1.734,1.735,1.734h5.205v-3.471H5.757z"/>
	<path opacity="0.2" fill="#FFFFFF" d="M55.205,25.71c-3.349,0-6.073-2.724-6.073-6.074c0-3.349,2.725-6.072,6.073-6.072
		s6.073,2.724,6.073,6.072C61.278,22.986,58.554,25.71,55.205,25.71z M55.205,17.034c-1.435,0-2.604,1.167-2.604,2.602
		c0,1.438,1.169,2.604,2.604,2.604c1.434,0,2.603-1.167,2.603-2.604C57.808,18.201,56.639,17.034,55.205,17.034z"/>
	<path opacity="0.4" fill="#FFFFFF" d="M75.157,37.854c-1.913,0-3.468-1.556-3.468-3.469c0-1.914,1.555-3.47,3.468-3.47
		c1.915,0,3.47,1.556,3.47,3.47C78.627,36.298,77.072,37.854,75.157,37.854z M75.157,34.382v0.003V34.382z"/>
	<path opacity="0.6" fill="#FFFFFF" d="M23.122,41.324h-0.016c-1.467,0-2.868-0.452-4.057-1.308
		c-0.775-0.561-0.952-1.646-0.394-2.424c0.558-0.773,1.645-0.951,2.424-0.393c0.594,0.43,1.294,0.653,2.027,0.653
		c0.96,0,1.743,0.777,1.743,1.735C24.849,40.548,24.082,41.324,23.122,41.324z M27.32,39.175c-0.351,0-0.708-0.107-1.015-0.33
		c-0.776-0.562-0.95-1.646-0.389-2.422c0.432-0.598,0.66-1.3,0.66-2.038c0-0.959,0.776-1.768,1.735-1.768
		c0.959,0,1.735,0.745,1.735,1.704v0.063c0,1.475-0.458,2.883-1.322,4.073C28.387,38.925,27.855,39.175,27.32,39.175z
		 M17.901,36.135c-0.959,0-1.735-0.76-1.735-1.72v-0.03c0-1.458,0.45-2.854,1.296-4.039c0.559-0.782,1.639-0.962,2.424-0.403
		c0.778,0.558,0.958,1.64,0.399,2.421c-0.424,0.593-0.649,1.294-0.649,2.021C19.636,35.343,18.86,36.135,17.901,36.135z
		 M26.122,31.878c-0.348,0-0.699-0.105-1.006-0.324c-0.587-0.417-1.28-0.639-2.01-0.639c-0.959,0-1.757-0.775-1.757-1.735
		c0-0.959,0.753-1.734,1.711-1.734h0.046c1.455,0,2.848,0.444,4.025,1.284c0.779,0.556,0.961,1.639,0.405,2.421
		C27.197,31.623,26.666,31.878,26.122,31.878z"/>
	<path opacity="0.8" fill="#FFFFFF" d="M49.106,46.531h-8.625l-0.52-0.688c-0.812-1.072-1.241-2.335-1.241-3.652
		c0-3.348,2.725-6.071,6.073-6.071c3.35,0,6.074,2.724,6.074,6.071c0,1.317-0.43,2.58-1.242,3.652L49.106,46.531z M42.349,43.059
		h4.892c0.092-0.248,0.158-0.541,0.158-0.867c0-1.435-1.17-2.603-2.604-2.603c-1.435,0-2.603,1.168-2.603,2.603
		C42.191,42.518,42.257,42.811,42.349,43.059z"/>
	<path fill="#EEEEEE" d="M33.925,86.437h13.226"/>
	<path fill="#FFFFFF" d="M78.324,86.437c4.959,0,8.977-4.039,8.977-9.026V55.788c0-1.519,0.411-3.007,1.189-4.308l2.828-4.742
		c0.512-0.854-0.1-1.942-1.095-1.942H9.774c-0.993,0-1.604,1.088-1.094,1.942l2.829,4.74c0.777,1.304,1.187,2.793,1.187,4.31V77.41
		c0,4.987,4.018,9.026,8.974,9.026"/>
	<path fill="#282E3A" d="M80.363,55.205H35.379c-0.958,0-1.734-0.775-1.734-1.736c0-0.958,0.776-1.733,1.734-1.733h44.984
		c0.959,0,1.733,0.775,1.733,1.733C82.097,54.43,81.322,55.205,80.363,55.205z"/>
	<path fill="#282E3A" d="M28.012,55.205h-8.376c-0.959,0-1.735-0.775-1.735-1.736c0-0.958,0.775-1.733,1.735-1.733h8.376
		c0.959,0,1.735,0.775,1.735,1.733C29.747,54.43,28.971,55.205,28.012,55.205z"/>
</g>
</svg>
